<?xml version="1.0" encoding="UTF-8"?>
<svg width="64" height="64" viewBox="0 0 64 64" xmlns="http://www.w3.org/2000/svg">
  <title>Settings</title>
  <g fill="none" fill-rule="evenodd">
    <path d="M0 0h64v64H0z"/>
    <path fill="#111827" d="M36.87 6.52c-.32-1.7-1.81-2.97-3.57-2.97h-2.6c-1.76 0-3.25 1.27-3.57 2.97l-.43 2.32a2.94 2.94 0 0 1-1.93 2.22 22.7 22.7 0 0 0-2.96 1.23 2.94 2.94 0 0 1-2.94-.23l-1.92-1.38c-1.42-1.02-3.37-.86-4.62.39l-1.84 1.84c-1.25 1.25-1.41 3.2-.39 4.62l1.38 1.92c.67.93.76 2.16.23 2.94a22.7 22.7 0 0 0-1.23 2.96 2.94 2.94 0 0 1-2.22 1.93l-2.32.43C4.82 27.45 3.55 28.94 3.55 30.7v2.6c0 1.76 1.27 3.25 2.97 3.57l2.32.43a2.94 2.94 0 0 1 2.22 1.93c.35 1.02.77 2 1.23 2.96.53.78.44 2.01-.23 2.94l-1.38 1.92c-1.02 1.42-.86 3.37.39 4.62l1.84 1.84c1.25 1.25 3.2 1.41 4.62.39l1.92-1.38c.78-.53 2.01-.44 2.94.23.96.46 1.94.88 2.96 1.23a2.94 2.94 0 0 1 1.93 2.22l.43 2.32c.32 1.7 1.81 2.97 3.57 2.97h2.6c1.76 0 3.25-1.27 3.57-2.97l.43-2.32a2.94 2.94 0 0 1 1.93-2.22c1.02-.35 2-.77 2.96-1.23.93-.67 2.16-.76 2.94-.23l1.92 1.38c1.42 1.02 3.37.86 4.62-.39l1.84-1.84c1.25-1.25 1.41-3.2.39-4.62l-1.38-1.92c-.67-.93-.76-2.16-.23-2.94.46-.96.88-1.94 1.23-2.96a2.94 2.94 0 0 1 2.22-1.93l2.32-.43c1.7-.32 2.97-1.81 2.97-3.57v-2.6c0-1.76-1.27-3.25-2.97-3.57l-2.32-.43a2.94 2.94 0 0 1-2.22-1.93c-.35-1.02-.77-2-1.23-2.96-.53-.78-.44-2.01.23-2.94l1.38-1.92c1.02-1.42.86-3.37-.39-4.62l-1.84-1.84c-1.25-1.25-3.2-1.41-4.62-.39l-1.92 1.38c-.78.53-2.01.44-2.94-.23-.96-.46-1.94-.88-2.96-1.23a2.94 2.94 0 0 1-1.93-2.22l-.43-2.32ZM32 41.5c-5.25 0-9.5-4.25-9.5-9.5s4.25-9.5 9.5-9.5 9.5 4.25 9.5 9.5-4.25 9.5-9.5 9.5Z"/>
  </g>
</svg>

